<svg version="1.1" viewBox="0.0 0.0 1200.0 1200.0" fill="none" stroke="none" stroke-linecap="square" stroke-miterlimit="10" xmlns:xlink="http://www.w3.org/1999/xlink" xmlns="http://www.w3.org/2000/svg"><clipPath id="p.0"><path d="m0 0l1200.0 0l0 1200.0l-1200.0 0l0 -1200.0z" clip-rule="nonzero"/></clipPath><g clip-path="url(#p.0)"><path fill="#000000" fill-opacity="0.0" d="m0 0l1200.0 0l0 1200.0l-1200.0 0z" fill-rule="evenodd"/><path fill="#ffffff" d="m0 0l1200.0 0l0 1200.0l-1200.0 0z" fill-rule="evenodd"/><path stroke="#ffffff" stroke-width="24.0" stroke-linejoin="round" stroke-linecap="butt" d="m0 0l1200.0 0l0 1200.0l-1200.0 0z" fill-rule="evenodd"/><path fill="#e06666" d="m275.34485 407.99863l0 0c0 -53.018585 42.98004 -95.99863 95.9986 -95.99863l456.01874 0c25.46045 0 49.87805 10.114105 67.88129 28.11734c18.003235 18.003235 28.11737 42.420868 28.11737 67.88129l0 383.98294c0 53.018555 -42.98004 95.9986 -95.99866 95.9986l-456.01874 0c-53.018555 0 -95.9986 -42.98004 -95.9986 -95.9986z" fill-rule="evenodd"/><path stroke="#ffffff" stroke-width="24.0" stroke-linejoin="round" stroke-linecap="butt" d="m275.34485 407.99863l0 0c0 -53.018585 42.98004 -95.99863 95.9986 -95.99863l456.01874 0c25.46045 0 49.87805 10.114105 67.88129 28.11734c18.003235 18.003235 28.11737 42.420868 28.11737 67.88129l0 383.98294c0 53.018555 -42.98004 95.9986 -95.99866 95.9986l-456.01874 0c-53.018555 0 -95.9986 -42.98004 -95.9986 -95.9986z" fill-rule="evenodd"/><path fill="#000000" fill-opacity="0.0" d="m286.2669 696.9602l198.73016 -220.39444" fill-rule="evenodd"/><path stroke="#ffffff" stroke-width="12.0" stroke-linejoin="round" stroke-linecap="butt" d="m286.2669 696.9602l198.73016 -220.39444" fill-rule="evenodd"/><path fill="#000000" fill-opacity="0.0" d="m484.99707 476.56577l217.81757 239.08975" fill-rule="evenodd"/><path stroke="#ffffff" stroke-width="12.0" stroke-linejoin="round" stroke-linecap="butt" d="m484.99707 476.56577l217.81757 239.08975" fill-rule="evenodd"/><path fill="#000000" fill-opacity="0.0" d="m776.60114 486.97397l-73.81854 228.69235" fill-rule="evenodd"/><path stroke="#ffffff" stroke-width="12.0" stroke-linejoin="round" stroke-linecap="butt" d="m776.60114 486.97397l-73.81854 228.69235" fill-rule="evenodd"/><path fill="#ffffff" d="m746.6519 457.58136l0 0c0 -16.233063 13.408691 -29.392578 29.949219 -29.392578l0 0c7.943054 0 15.560791 3.0967102 21.177368 8.608887c5.616516 5.5121765 8.771912 12.988312 8.771912 20.783691l0 0c0 16.233093 -13.408752 29.392609 -29.94928 29.392609l0 0c-16.540527 0 -29.949219 -13.159515 -29.949219 -29.392609z" fill-rule="evenodd"/><path stroke="#ffffff" stroke-width="24.0" stroke-linejoin="round" stroke-linecap="butt" d="m746.6519 457.58136l0 0c0 -16.233063 13.408691 -29.392578 29.949219 -29.392578l0 0c7.943054 0 15.560791 3.0967102 21.177368 8.608887c5.616516 5.5121765 8.771912 12.988312 8.771912 20.783691l0 0c0 16.233093 -13.408752 29.392609 -29.94928 29.392609l0 0c-16.540527 0 -29.949219 -13.159515 -29.949219 -29.392609z" fill-rule="evenodd"/><path fill="#ffffff" d="m367.91855 427.58804l0 0c0 -5.410034 4.3857117 -9.795776 9.795776 -9.795776l214.56546 0c2.5980225 0 5.0895996 1.032074 6.926697 2.8691406c1.8370361 1.8370361 2.8690796 4.328644 2.8690796 6.9266357l0 39.181946c0 5.4100647 -4.385681 9.795776 -9.795776 9.795776l-214.56546 0c-5.4100647 0 -9.795776 -4.3857117 -9.795776 -9.795776z" fill-rule="evenodd"/><path stroke="#ffffff" stroke-width="24.0" stroke-linejoin="round" stroke-linecap="butt" d="m367.91855 427.58804l0 0c0 -5.410034 4.3857117 -9.795776 9.795776 -9.795776l214.56546 0c2.5980225 0 5.0895996 1.032074 6.926697 2.8691406c1.8370361 1.8370361 2.8690796 4.328644 2.8690796 6.9266357l0 39.181946c0 5.4100647 -4.385681 9.795776 -9.795776 9.795776l-214.56546 0c-5.4100647 0 -9.795776 -4.3857117 -9.795776 -9.795776z" fill-rule="evenodd"/><path fill="#ffffff" d="m585.7391 725.4486l0 0c0 -5.410034 4.385681 -9.795776 9.795776 -9.795776l214.56543 0c2.5980225 0 5.0895996 1.0321045 6.926697 2.8691406c1.8370361 1.8370361 2.8690796 4.3286743 2.8690796 6.9266357l0 39.181946c0 5.410095 -4.385681 9.795776 -9.795776 9.795776l-214.56543 0c-5.410095 0 -9.795776 -4.385681 -9.795776 -9.795776z" fill-rule="evenodd"/><path stroke="#ffffff" stroke-width="24.0" stroke-linejoin="round" stroke-linecap="butt" d="m585.7391 725.4486l0 0c0 -5.410034 4.385681 -9.795776 9.795776 -9.795776l214.56543 0c2.5980225 0 5.0895996 1.0321045 6.926697 2.8691406c1.8370361 1.8370361 2.8690796 4.3286743 2.8690796 6.9266357l0 39.181946c0 5.410095 -4.385681 9.795776 -9.795776 9.795776l-214.56543 0c-5.410095 0 -9.795776 -4.385681 -9.795776 -9.795776z" fill-rule="evenodd"/></g></svg>