<svg version="1.1" viewBox="0.0 0.0 1200.0 1200.0" fill="none" stroke="none" stroke-linecap="square" stroke-miterlimit="10" xmlns:xlink="http://www.w3.org/1999/xlink" xmlns="http://www.w3.org/2000/svg"><clipPath id="p.0"><path d="m0 0l1200.0 0l0 1200.0l-1200.0 0l0 -1200.0z" clip-rule="nonzero"/></clipPath><g clip-path="url(#p.0)"><path fill="#000000" fill-opacity="0.0" d="m0 0l1200.0 0l0 1200.0l-1200.0 0z" fill-rule="evenodd"/><path fill="#351c75" d="m0 0l1200.0 0l0 1200.0l-1200.0 0z" fill-rule="evenodd"/><path stroke="#ffffff" stroke-width="1.0" stroke-linejoin="round" stroke-linecap="butt" d="m0 0l1200.0 0l0 1200.0l-1200.0 0z" fill-rule="evenodd"/><path fill="#000000" fill-opacity="0.0" d="m453.00516 396.56393l249.82675 399.08664" fill-rule="evenodd"/><path stroke="#ffffff" stroke-width="12.0" stroke-linejoin="round" stroke-linecap="butt" d="m453.00516 396.56393l249.82675 399.08664" fill-rule="evenodd"/><path fill="#000000" fill-opacity="0.0" d="m784.6047 518.96045l-81.763794 276.69287" fill-rule="evenodd"/><path stroke="#ffffff" stroke-width="12.0" stroke-linejoin="round" stroke-linecap="butt" d="m784.6047 518.96045l-81.763794 276.69287" fill-rule="evenodd"/><path fill="#ffffff" d="m754.6519 489.57462l0 0c0 -16.22937 13.410278 -29.385834 29.952759 -29.385834l0 0c7.9439697 0 15.562561 3.0959778 21.179749 8.606903c5.6172485 5.5109253 8.77301 12.985321 8.77301 20.77893l0 0c0 16.22934 -13.410339 29.385834 -29.952759 29.385834l0 0c-16.54248 0 -29.952759 -13.156494 -29.952759 -29.385834z" fill-rule="evenodd"/><path stroke="#ffffff" stroke-width="24.0" stroke-linejoin="round" stroke-linecap="butt" d="m754.6519 489.57462l0 0c0 -16.22937 13.410278 -29.385834 29.952759 -29.385834l0 0c7.9439697 0 15.562561 3.0959778 21.179749 8.606903c5.6172485 5.5109253 8.77301 12.985321 8.77301 20.77893l0 0c0 16.22934 -13.410339 29.385834 -29.952759 29.385834l0 0c-16.54248 0 -29.952759 -13.156494 -29.952759 -29.385834z" fill-rule="evenodd"/><path fill="#ffffff" d="m335.91855 347.58774l0 0c0 -5.4098816 4.3855896 -9.795471 9.795471 -9.795471l214.5823 0c2.5979004 0 5.0894165 1.0320435 6.9264526 2.869049c1.8369751 1.8370056 2.8690186 4.3285217 2.8690186 6.926422l0 39.180725c0 5.4098816 -4.38562 9.795471 -9.795471 9.795471l-214.5823 0c-5.4098816 0 -9.795471 -4.3855896 -9.795471 -9.795471z" fill-rule="evenodd"/><path stroke="#ffffff" stroke-width="24.0" stroke-linejoin="round" stroke-linecap="butt" d="m335.91855 347.58774l0 0c0 -5.4098816 4.3855896 -9.795471 9.795471 -9.795471l214.5823 0c2.5979004 0 5.0894165 1.0320435 6.9264526 2.869049c1.8369751 1.8370056 2.8690186 4.3285217 2.8690186 6.926422l0 39.180725c0 5.4098816 -4.38562 9.795471 -9.795471 9.795471l-214.5823 0c-5.4098816 0 -9.795471 -4.3855896 -9.795471 -9.795471z" fill-rule="evenodd"/><path fill="#ffffff" d="m585.7391 805.4483l0 0c0 -5.409851 4.385559 -9.795471 9.795471 -9.795471l214.58228 0c2.5979004 0 5.0894165 1.0320435 6.9264526 2.8690796c1.8369751 1.8369751 2.8690186 4.328491 2.8690186 6.9263916l0 39.180725c0 5.409912 -4.38562 9.795471 -9.795471 9.795471l-214.58228 0c-5.409912 0 -9.795471 -4.385559 -9.795471 -9.795471z" fill-rule="evenodd"/><path stroke="#ffffff" stroke-width="24.0" stroke-linejoin="round" stroke-linecap="butt" d="m585.7391 805.4483l0 0c0 -5.409851 4.385559 -9.795471 9.795471 -9.795471l214.58228 0c2.5979004 0 5.0894165 1.0320435 6.9264526 2.8690796c1.8369751 1.8369751 2.8690186 4.328491 2.8690186 6.9263916l0 39.180725c0 5.409912 -4.38562 9.795471 -9.795471 9.795471l-214.58228 0c-5.409912 0 -9.795471 -4.385559 -9.795471 -9.795471z" fill-rule="evenodd"/></g></svg>