<svg version="1.1" viewBox="0.0 0.0 1200.0 1200.0" fill="none" stroke="none" stroke-linecap="square" stroke-miterlimit="10" xmlns:xlink="http://www.w3.org/1999/xlink" xmlns="http://www.w3.org/2000/svg"><clipPath id="p.0"><path d="m0 0l1200.0 0l0 1200.0l-1200.0 0l0 -1200.0z" clip-rule="nonzero"/></clipPath><g clip-path="url(#p.0)"><path fill="#000000" fill-opacity="0.0" d="m0 0l1200.0 0l0 1200.0l-1200.0 0z" fill-rule="evenodd"/><path fill="#ffffff" d="m0 0l1200.0 0l0 1200.0l-1200.0 0z" fill-rule="evenodd"/><path stroke="#ffffff" stroke-width="24.0" stroke-linejoin="round" stroke-linecap="butt" d="m0 0l1200.0 0l0 1200.0l-1200.0 0z" fill-rule="evenodd"/><path fill="#e06666" d="m408.79263 452.49228l0 0c0 -33.405914 27.080872 -60.486786 60.486816 -60.486786l266.1096 0c16.042114 0 31.427124 6.3726807 42.77063 17.716156c11.343445 11.343475 17.716187 26.728546 17.716187 42.77063l0 241.93997c0 33.405945 -27.080872 60.486816 -60.486816 60.486816l-266.1096 0c-33.405945 0 -60.486816 -27.080872 -60.486816 -60.486816z" fill-rule="evenodd"/><path stroke="#ffffff" stroke-width="24.0" stroke-linejoin="round" stroke-linecap="butt" d="m408.79263 452.49228l0 0c0 -33.405914 27.080872 -60.486786 60.486816 -60.486786l266.1096 0c16.042114 0 31.427124 6.3726807 42.77063 17.716156c11.343445 11.343475 17.716187 26.728546 17.716187 42.77063l0 241.93997c0 33.405945 -27.080872 60.486816 -60.486816 60.486816l-266.1096 0c-33.405945 0 -60.486816 -27.080872 -60.486816 -60.486816z" fill-rule="evenodd"/><path fill="#000000" fill-opacity="0.0" d="m360.00064 744.091l487.92 0l0 99.98639l-487.92 0z" fill-rule="evenodd"/><path stroke="#ffffff" stroke-width="24.0" stroke-linejoin="round" stroke-linecap="butt" d="m360.00064 744.091l487.92 0l0 99.98639l-487.92 0z" fill-rule="evenodd"/><path fill="#e06666" d="m433.3194 828.7442l-0.1875 -35.609375l-17.28125 28.984375l-8.453125 0l-17.1875 -28.03125l0 34.65625l-17.5625 0l0 -67.203125l15.65625 0l23.609375 38.78125l23.046875 -38.78125l15.640625 0l0.1875 67.203125l-17.46875 0zm64.802704 1.34375q-10.65625 0 -19.15625 -4.515625q-8.5 -4.515625 -13.34375 -12.46875q-4.84375 -7.96875 -4.84375 -17.953125q0 -9.984375 4.84375 -17.953125q4.84375 -7.96875 13.34375 -12.484375q8.5 -4.515625 19.15625 -4.515625q10.65625 0 19.140594 4.515625q8.5 4.515625 13.34375 12.484375q4.859375 7.96875 4.859375 17.953125q0 9.984375 -4.859375 17.953125q-4.84375 7.953125 -13.34375 12.46875q-8.4843445 4.515625 -19.140594 4.515625zm0 -15.75q5.09375 0 9.21875 -2.390625q4.125 -2.40625 6.5155945 -6.765625q2.40625 -4.375 2.40625 -10.03125q0 -5.671875 -2.40625 -10.03125q-2.3905945 -4.375 -6.5155945 -6.765625q-4.125 -2.40625 -9.21875 -2.40625q-5.09375 0 -9.21875 2.40625q-4.125 2.390625 -6.53125 6.765625q-2.390625 4.359375 -2.390625 10.03125q0 5.65625 2.390625 10.03125q2.40625 4.359375 6.53125 6.765625q4.125 2.390625 9.21875 2.390625zm78.0441 -52.796875q9.125 0 15.84375 3.03125q6.71875 3.015625 10.359375 8.640625q3.65625 5.609375 3.65625 13.1875q0 7.59375 -3.65625 13.171875q-3.640625 5.5625 -10.359375 8.59375q-6.71875 3.015625 -15.84375 3.015625l-11.703125 0l0 17.5625l-19.015625 0l0 -67.203125l30.71875 0zm-1.15625 34.65625q5.859375 0 8.828125 -2.53125q2.984375 -2.546875 2.984375 -7.265625q0 -4.703125 -2.984375 -7.28125q-2.96875 -2.59375 -8.828125 -2.59375l-10.546875 0l0 19.671875l10.546875 0zm75.08008 33.890625q-10.65625 0 -19.15625 -4.515625q-8.5 -4.515625 -13.34375 -12.46875q-4.84375 -7.96875 -4.84375 -17.953125q0 -9.984375 4.84375 -17.953125q4.84375 -7.96875 13.34375 -12.484375q8.5 -4.515625 19.15625 -4.515625q10.65625 0 19.140625 4.515625q8.5 4.515625 13.34375 12.484375q4.859375 7.96875 4.859375 17.953125q0 9.984375 -4.859375 17.953125q-4.84375 7.953125 -13.34375 12.46875q-8.484375 4.515625 -19.140625 4.515625zm0 -15.75q5.09375 0 9.21875 -2.390625q4.125 -2.40625 6.515625 -6.765625q2.40625 -4.375 2.40625 -10.03125q0 -5.671875 -2.40625 -10.03125q-2.390625 -4.375 -6.515625 -6.765625q-4.125 -2.40625 -9.21875 -2.40625q-5.09375 0 -9.21875 2.40625q-4.125 2.390625 -6.53125 6.765625q-2.390625 4.359375 -2.390625 10.03125q0 5.65625 2.390625 10.03125q2.40625 4.359375 6.53125 6.765625q4.125 2.390625 9.21875 2.390625zm111.26282 -52.796875l0 67.203125l-15.640625 0l-29.671875 -35.8125l0 35.8125l-18.625 0l0 -67.203125l15.65625 0l29.65625 35.8125l0 -35.8125l18.625 0zm58.469727 32.15625l16.796875 0l0 27.84375q-5.765625 4.125 -13.25 6.34375q-7.484375 2.203125 -14.984375 2.203125q-10.546875 0 -19.0 -4.453125q-8.453125 -4.46875 -13.25 -12.4375q-4.796875 -7.96875 -4.796875 -18.046875q0 -10.09375 4.796875 -18.046875q4.796875 -7.96875 13.34375 -12.4375q8.546875 -4.46875 19.296875 -4.46875q9.40625 0 16.890625 3.171875q7.5 3.171875 12.484375 9.125l-12.09375 10.9375q-6.8125 -7.484375 -16.328125 -7.484375q-8.625 0 -13.90625 5.234375q-5.28125 5.21875 -5.28125 13.96875q0 5.5625 2.390625 9.9375q2.40625 4.359375 6.71875 6.8125q4.328125 2.4375 9.890625 2.4375q5.46875 0 10.28125 -2.203125l0 -18.4375z" fill-rule="nonzero"/><path fill="#000000" fill-opacity="0.0" d="m415.31104 634.56506l118.71442 -138.87" fill-rule="evenodd"/><path stroke="#ffffff" stroke-width="12.0" stroke-linejoin="round" stroke-linecap="butt" d="m415.31104 634.56506l118.71442 -138.87" fill-rule="evenodd"/><path fill="#000000" fill-opacity="0.0" d="m534.02545 495.69507l130.112 150.65027" fill-rule="evenodd"/><path stroke="#ffffff" stroke-width="12.0" stroke-linejoin="round" stroke-linecap="butt" d="m534.02545 495.69507l130.112 150.65027" fill-rule="evenodd"/><path fill="#000000" fill-opacity="0.0" d="m714.5302 461.20825l-50.39276 185.13086" fill-rule="evenodd"/><path stroke="#ffffff" stroke-width="12.0" stroke-linejoin="round" stroke-linecap="butt" d="m714.5302 461.20825l-50.39276 185.13086" fill-rule="evenodd"/><path fill="#ffffff" d="m695.03906 477.17908l0 0c0 -10.226105 8.009766 -18.515991 17.89038 -18.515991l0 0c4.744812 0 9.295349 1.9507751 12.650452 5.423218c3.3550415 3.472412 5.239929 8.182037 5.239929 13.092773l0 0c0 10.226105 -8.009766 18.515991 -17.89038 18.515991l0 0c-9.880615 0 -17.89038 -8.289886 -17.89038 -18.515991z" fill-rule="evenodd"/><path stroke="#ffffff" stroke-width="24.0" stroke-linejoin="round" stroke-linecap="butt" d="m695.03906 477.17908l0 0c0 -10.226105 8.009766 -18.515991 17.89038 -18.515991l0 0c4.744812 0 9.295349 1.9507751 12.650452 5.423218c3.3550415 3.472412 5.239929 8.182037 5.239929 13.092773l0 0c0 10.226105 -8.009766 18.515991 -17.89038 18.515991l0 0c-9.880615 0 -17.89038 -8.289886 -17.89038 -18.515991z" fill-rule="evenodd"/><path fill="#ffffff" d="m464.09024 464.8352l0 0c0 -3.408783 2.7633667 -6.172119 6.172119 -6.172119l127.52615 0c1.6369629 0 3.2068481 0.65026855 4.36438 1.8077698c1.1574707 1.1575012 1.8077393 2.727417 1.8077393 4.3643494l0 24.687744c0 3.408783 -2.7633667 6.172119 -6.172119 6.172119l-127.52615 0c-3.4087524 0 -6.172119 -2.7633362 -6.172119 -6.172119z" fill-rule="evenodd"/><path stroke="#ffffff" stroke-width="24.0" stroke-linejoin="round" stroke-linecap="butt" d="m464.09024 464.8352l0 0c0 -3.408783 2.7633667 -6.172119 6.172119 -6.172119l127.52615 0c1.6369629 0 3.2068481 0.65026855 4.36438 1.8077698c1.1574707 1.1575012 1.8077393 2.727417 1.8077393 4.3643494l0 24.687744c0 3.408783 -2.7633667 6.172119 -6.172119 6.172119l-127.52615 0c-3.4087524 0 -6.172119 -2.7633362 -6.172119 -6.172119z" fill-rule="evenodd"/><path fill="#ffffff" d="m594.2023 652.5112l0 0c0 -3.4088135 2.7633057 -6.172119 6.172119 -6.172119l127.52612 0c1.6369629 0 3.2068481 0.65026855 4.36438 1.8077393c1.1574707 1.1575317 1.8077393 2.727417 1.8077393 4.36438l0 24.687744c0 3.4087524 -2.7633667 6.172119 -6.172119 6.172119l-127.52612 0c-3.4088135 0 -6.172119 -2.7633667 -6.172119 -6.172119z" fill-rule="evenodd"/><path stroke="#ffffff" stroke-width="24.0" stroke-linejoin="round" stroke-linecap="butt" d="m594.2023 652.5112l0 0c0 -3.4088135 2.7633057 -6.172119 6.172119 -6.172119l127.52612 0c1.6369629 0 3.2068481 0.65026855 4.36438 1.8077393c1.1574707 1.1575317 1.8077393 2.727417 1.8077393 4.36438l0 24.687744c0 3.4087524 -2.7633667 6.172119 -6.172119 6.172119l-127.52612 0c-3.4088135 0 -6.172119 -2.7633667 -6.172119 -6.172119z" fill-rule="evenodd"/></g></svg>